<mxfile host="app.diagrams.net" agent="Mozilla/5.0 (Windows NT 10.0; Win64; x64) AppleWebKit/537.36 (KHTML, like Gecko) Chrome/128.0.0.0 Safari/537.36 OPR/114.0.0.0" version="25.0.1">
  <diagram name="Page-1" id="e7e014a7-5840-1c2e-5031-d8a46d1fe8dd">
    <mxGraphModel dx="2046" dy="581" grid="1" gridSize="10" guides="1" tooltips="1" connect="1" arrows="1" fold="1" page="1" pageScale="1" pageWidth="1169" pageHeight="826" background="none" math="0" shadow="0">
      <root>
        <mxCell id="0" />
        <mxCell id="1" parent="0" />
        <mxCell id="bTk-ZVTR1K73Wt07V1Ee-41" value="SelectParkingSpot" style="rounded=0;whiteSpace=wrap;html=1;" vertex="1" parent="1">
          <mxGeometry x="310" y="170" width="120" height="60" as="geometry" />
        </mxCell>
        <mxCell id="bTk-ZVTR1K73Wt07V1Ee-43" value="" style="edgeStyle=orthogonalEdgeStyle;rounded=0;orthogonalLoop=1;jettySize=auto;html=1;" edge="1" parent="1" source="bTk-ZVTR1K73Wt07V1Ee-42" target="bTk-ZVTR1K73Wt07V1Ee-41">
          <mxGeometry relative="1" as="geometry" />
        </mxCell>
        <mxCell id="bTk-ZVTR1K73Wt07V1Ee-42" value="" style="ellipse;html=1;shape=startState;fillColor=#000000;strokeColor=#ff0000;rounded=1;shadow=0;comic=0;labelBackgroundColor=none;fontFamily=Verdana;fontSize=12;fontColor=#000000;align=center;direction=south;" vertex="1" parent="1">
          <mxGeometry x="190" y="185" width="30" height="30" as="geometry" />
        </mxCell>
        <mxCell id="bTk-ZVTR1K73Wt07V1Ee-101" style="edgeStyle=orthogonalEdgeStyle;rounded=0;orthogonalLoop=1;jettySize=auto;html=1;exitX=0.5;exitY=1;exitDx=0;exitDy=0;entryX=0.75;entryY=0;entryDx=0;entryDy=0;" edge="1" parent="1" source="bTk-ZVTR1K73Wt07V1Ee-47" target="bTk-ZVTR1K73Wt07V1Ee-99">
          <mxGeometry relative="1" as="geometry" />
        </mxCell>
        <mxCell id="bTk-ZVTR1K73Wt07V1Ee-47" value="" style="rhombus;whiteSpace=wrap;html=1;" vertex="1" parent="1">
          <mxGeometry x="355" y="430" width="30" height="30" as="geometry" />
        </mxCell>
        <mxCell id="bTk-ZVTR1K73Wt07V1Ee-49" value="" style="edgeStyle=orthogonalEdgeStyle;rounded=0;orthogonalLoop=1;jettySize=auto;html=1;" edge="1" parent="1" source="bTk-ZVTR1K73Wt07V1Ee-48" target="bTk-ZVTR1K73Wt07V1Ee-47">
          <mxGeometry relative="1" as="geometry" />
        </mxCell>
        <mxCell id="bTk-ZVTR1K73Wt07V1Ee-48" value="Verify parking space availability" style="rounded=0;whiteSpace=wrap;html=1;" vertex="1" parent="1">
          <mxGeometry x="310" y="320" width="120" height="60" as="geometry" />
        </mxCell>
        <mxCell id="bTk-ZVTR1K73Wt07V1Ee-51" value="" style="endArrow=classic;html=1;rounded=0;exitX=1;exitY=0.5;exitDx=0;exitDy=0;entryX=1;entryY=0.5;entryDx=0;entryDy=0;" edge="1" parent="1" source="bTk-ZVTR1K73Wt07V1Ee-47" target="bTk-ZVTR1K73Wt07V1Ee-41">
          <mxGeometry width="50" height="50" relative="1" as="geometry">
            <mxPoint x="390" y="490" as="sourcePoint" />
            <mxPoint x="480" y="190" as="targetPoint" />
            <Array as="points">
              <mxPoint x="480" y="445" />
              <mxPoint x="480" y="200" />
            </Array>
          </mxGeometry>
        </mxCell>
        <mxCell id="bTk-ZVTR1K73Wt07V1Ee-52" value="full" style="text;html=1;align=center;verticalAlign=middle;whiteSpace=wrap;rounded=0;" vertex="1" parent="1">
          <mxGeometry x="390" y="413" width="60" height="30" as="geometry" />
        </mxCell>
        <mxCell id="bTk-ZVTR1K73Wt07V1Ee-56" value="notFull" style="text;html=1;align=center;verticalAlign=middle;whiteSpace=wrap;rounded=0;" vertex="1" parent="1">
          <mxGeometry x="310" y="510" width="60" height="30" as="geometry" />
        </mxCell>
        <mxCell id="bTk-ZVTR1K73Wt07V1Ee-73" value="" style="edgeStyle=orthogonalEdgeStyle;rounded=0;orthogonalLoop=1;jettySize=auto;html=1;" edge="1" parent="1" source="bTk-ZVTR1K73Wt07V1Ee-63" target="bTk-ZVTR1K73Wt07V1Ee-72">
          <mxGeometry relative="1" as="geometry" />
        </mxCell>
        <mxCell id="bTk-ZVTR1K73Wt07V1Ee-63" value="SendRequest" style="rounded=0;whiteSpace=wrap;html=1;" vertex="1" parent="1">
          <mxGeometry x="50" y="320" width="120" height="60" as="geometry" />
        </mxCell>
        <mxCell id="bTk-ZVTR1K73Wt07V1Ee-72" value="" style="rhombus;whiteSpace=wrap;html=1;" vertex="1" parent="1">
          <mxGeometry x="95" y="410" width="30" height="30" as="geometry" />
        </mxCell>
        <mxCell id="bTk-ZVTR1K73Wt07V1Ee-81" value="" style="edgeStyle=orthogonalEdgeStyle;rounded=0;orthogonalLoop=1;jettySize=auto;html=1;" edge="1" parent="1" source="bTk-ZVTR1K73Wt07V1Ee-74" target="bTk-ZVTR1K73Wt07V1Ee-80">
          <mxGeometry relative="1" as="geometry" />
        </mxCell>
        <mxCell id="bTk-ZVTR1K73Wt07V1Ee-74" value="AdminProcessesRequest" style="rounded=0;whiteSpace=wrap;html=1;" vertex="1" parent="1">
          <mxGeometry x="-150" y="470" width="160" height="60" as="geometry" />
        </mxCell>
        <mxCell id="bTk-ZVTR1K73Wt07V1Ee-75" value="" style="endArrow=classic;html=1;rounded=0;exitX=1;exitY=0.5;exitDx=0;exitDy=0;entryX=0.5;entryY=0;entryDx=0;entryDy=0;" edge="1" parent="1" source="bTk-ZVTR1K73Wt07V1Ee-72" target="bTk-ZVTR1K73Wt07V1Ee-82">
          <mxGeometry width="50" height="50" relative="1" as="geometry">
            <mxPoint x="170" y="460" as="sourcePoint" />
            <mxPoint x="230" y="425" as="targetPoint" />
            <Array as="points">
              <mxPoint x="235" y="425" />
            </Array>
          </mxGeometry>
        </mxCell>
        <mxCell id="bTk-ZVTR1K73Wt07V1Ee-77" value="not processed" style="text;html=1;align=center;verticalAlign=middle;whiteSpace=wrap;rounded=0;" vertex="1" parent="1">
          <mxGeometry x="-50" y="390" width="80" height="30" as="geometry" />
        </mxCell>
        <mxCell id="bTk-ZVTR1K73Wt07V1Ee-79" value="processed" style="text;html=1;align=center;verticalAlign=middle;whiteSpace=wrap;rounded=0;" vertex="1" parent="1">
          <mxGeometry x="150" y="400" width="60" height="30" as="geometry" />
        </mxCell>
        <mxCell id="bTk-ZVTR1K73Wt07V1Ee-84" value="" style="edgeStyle=orthogonalEdgeStyle;rounded=0;orthogonalLoop=1;jettySize=auto;html=1;" edge="1" parent="1" source="bTk-ZVTR1K73Wt07V1Ee-80" target="bTk-ZVTR1K73Wt07V1Ee-82">
          <mxGeometry relative="1" as="geometry" />
        </mxCell>
        <mxCell id="bTk-ZVTR1K73Wt07V1Ee-80" value="" style="rhombus;whiteSpace=wrap;html=1;" vertex="1" parent="1">
          <mxGeometry x="95" y="485" width="30" height="30" as="geometry" />
        </mxCell>
        <mxCell id="bTk-ZVTR1K73Wt07V1Ee-100" style="edgeStyle=orthogonalEdgeStyle;rounded=0;orthogonalLoop=1;jettySize=auto;html=1;exitX=0.5;exitY=1;exitDx=0;exitDy=0;entryX=0.25;entryY=0;entryDx=0;entryDy=0;" edge="1" parent="1" source="bTk-ZVTR1K73Wt07V1Ee-82" target="bTk-ZVTR1K73Wt07V1Ee-99">
          <mxGeometry relative="1" as="geometry" />
        </mxCell>
        <mxCell id="bTk-ZVTR1K73Wt07V1Ee-82" value="" style="rhombus;whiteSpace=wrap;html=1;" vertex="1" parent="1">
          <mxGeometry x="220" y="485" width="30" height="30" as="geometry" />
        </mxCell>
        <mxCell id="bTk-ZVTR1K73Wt07V1Ee-85" value="" style="endArrow=classic;html=1;rounded=0;exitX=0.5;exitY=1;exitDx=0;exitDy=0;" edge="1" parent="1" source="bTk-ZVTR1K73Wt07V1Ee-80">
          <mxGeometry width="50" height="50" relative="1" as="geometry">
            <mxPoint x="100" y="596" as="sourcePoint" />
            <mxPoint x="110" y="560" as="targetPoint" />
          </mxGeometry>
        </mxCell>
        <mxCell id="bTk-ZVTR1K73Wt07V1Ee-88" value="noPermission" style="text;html=1;align=center;verticalAlign=middle;whiteSpace=wrap;rounded=0;" vertex="1" parent="1">
          <mxGeometry x="35" y="530" width="60" height="30" as="geometry" />
        </mxCell>
        <mxCell id="bTk-ZVTR1K73Wt07V1Ee-89" value="hasPermission" style="text;html=1;align=center;verticalAlign=middle;whiteSpace=wrap;rounded=0;" vertex="1" parent="1">
          <mxGeometry x="140" y="470" width="60" height="30" as="geometry" />
        </mxCell>
        <mxCell id="bTk-ZVTR1K73Wt07V1Ee-90" value="" style="endArrow=classic;html=1;rounded=0;exitX=0;exitY=0.5;exitDx=0;exitDy=0;" edge="1" parent="1" source="bTk-ZVTR1K73Wt07V1Ee-72">
          <mxGeometry width="50" height="50" relative="1" as="geometry">
            <mxPoint x="-60" y="438" as="sourcePoint" />
            <mxPoint x="-80" y="470" as="targetPoint" />
            <Array as="points">
              <mxPoint x="-80" y="425" />
            </Array>
          </mxGeometry>
        </mxCell>
        <mxCell id="bTk-ZVTR1K73Wt07V1Ee-94" value="" style="endArrow=classic;html=1;rounded=0;exitX=0.5;exitY=1;exitDx=0;exitDy=0;entryX=0.5;entryY=0;entryDx=0;entryDy=0;" edge="1" parent="1" source="bTk-ZVTR1K73Wt07V1Ee-41" target="bTk-ZVTR1K73Wt07V1Ee-96">
          <mxGeometry width="50" height="50" relative="1" as="geometry">
            <mxPoint x="290" y="420" as="sourcePoint" />
            <mxPoint x="370" y="280" as="targetPoint" />
          </mxGeometry>
        </mxCell>
        <mxCell id="bTk-ZVTR1K73Wt07V1Ee-97" value="" style="edgeStyle=orthogonalEdgeStyle;rounded=0;orthogonalLoop=1;jettySize=auto;html=1;" edge="1" parent="1" source="bTk-ZVTR1K73Wt07V1Ee-96" target="bTk-ZVTR1K73Wt07V1Ee-48">
          <mxGeometry relative="1" as="geometry" />
        </mxCell>
        <mxCell id="bTk-ZVTR1K73Wt07V1Ee-98" style="edgeStyle=orthogonalEdgeStyle;rounded=0;orthogonalLoop=1;jettySize=auto;html=1;exitX=0.25;exitY=1;exitDx=0;exitDy=0;entryX=0.5;entryY=0;entryDx=0;entryDy=0;" edge="1" parent="1" source="bTk-ZVTR1K73Wt07V1Ee-96" target="bTk-ZVTR1K73Wt07V1Ee-63">
          <mxGeometry relative="1" as="geometry" />
        </mxCell>
        <mxCell id="bTk-ZVTR1K73Wt07V1Ee-96" value="" style="rounded=0;whiteSpace=wrap;html=1;fillColor=#f8cecc;strokeColor=#b85450;" vertex="1" parent="1">
          <mxGeometry x="310" y="260" width="120" height="20" as="geometry" />
        </mxCell>
        <mxCell id="bTk-ZVTR1K73Wt07V1Ee-103" value="" style="edgeStyle=orthogonalEdgeStyle;rounded=0;orthogonalLoop=1;jettySize=auto;html=1;" edge="1" parent="1" source="bTk-ZVTR1K73Wt07V1Ee-99" target="bTk-ZVTR1K73Wt07V1Ee-102">
          <mxGeometry relative="1" as="geometry" />
        </mxCell>
        <mxCell id="bTk-ZVTR1K73Wt07V1Ee-99" value="" style="rounded=0;whiteSpace=wrap;html=1;fillColor=#f8cecc;strokeColor=#b85450;" vertex="1" parent="1">
          <mxGeometry x="240" y="610" width="120" height="20" as="geometry" />
        </mxCell>
        <mxCell id="bTk-ZVTR1K73Wt07V1Ee-110" value="" style="edgeStyle=orthogonalEdgeStyle;rounded=0;orthogonalLoop=1;jettySize=auto;html=1;" edge="1" parent="1" source="bTk-ZVTR1K73Wt07V1Ee-102" target="bTk-ZVTR1K73Wt07V1Ee-107">
          <mxGeometry relative="1" as="geometry" />
        </mxCell>
        <mxCell id="bTk-ZVTR1K73Wt07V1Ee-102" value="Request Approved" style="rounded=0;whiteSpace=wrap;html=1;" vertex="1" parent="1">
          <mxGeometry x="240" y="670" width="120" height="60" as="geometry" />
        </mxCell>
        <mxCell id="bTk-ZVTR1K73Wt07V1Ee-106" value="" style="edgeStyle=orthogonalEdgeStyle;rounded=0;orthogonalLoop=1;jettySize=auto;html=1;" edge="1" parent="1" source="bTk-ZVTR1K73Wt07V1Ee-104" target="bTk-ZVTR1K73Wt07V1Ee-105">
          <mxGeometry relative="1" as="geometry" />
        </mxCell>
        <mxCell id="bTk-ZVTR1K73Wt07V1Ee-104" value="Request Denied" style="rounded=0;whiteSpace=wrap;html=1;" vertex="1" parent="1">
          <mxGeometry x="50" y="560" width="120" height="60" as="geometry" />
        </mxCell>
        <mxCell id="bTk-ZVTR1K73Wt07V1Ee-105" value="" style="ellipse;html=1;shape=startState;fillColor=#000000;strokeColor=#ff0000;rounded=1;shadow=0;comic=0;labelBackgroundColor=none;fontFamily=Verdana;fontSize=12;fontColor=#000000;align=center;direction=south;" vertex="1" parent="1">
          <mxGeometry x="95" y="660" width="30" height="30" as="geometry" />
        </mxCell>
        <mxCell id="bTk-ZVTR1K73Wt07V1Ee-107" value="" style="ellipse;html=1;shape=startState;fillColor=#000000;strokeColor=#ff0000;rounded=1;shadow=0;comic=0;labelBackgroundColor=none;fontFamily=Verdana;fontSize=12;fontColor=#000000;align=center;direction=south;" vertex="1" parent="1">
          <mxGeometry x="285" y="760" width="30" height="30" as="geometry" />
        </mxCell>
      </root>
    </mxGraphModel>
  </diagram>
</mxfile>
